<?xml version="1.0" encoding="utf-8"?>
<!-- Generator: Adobe Illustrator 23.0.4, SVG Export Plug-In . SVG Version: 6.00 Build 0)  -->
<svg version="1.1" id="Calque_1" xmlns="http://www.w3.org/2000/svg" xmlns:xlink="http://www.w3.org/1999/xlink" x="0px" y="0px"
	 viewBox="0 0 680 407" style="enable-background:new 0 0 680 407;" xml:space="preserve">
<style type="text/css">
	.st0{fill:#FFFFFF;}
	.st1{fill:#FFFFFF;stroke:#FFFFFF;stroke-miterlimit:10;}
</style>
<path class="st0" d="M153.2,41.3L54.8,185V41.3C54.8,41.3,152.2,42.3,153.2,41.3z"/>
<path class="st0" d="M174.9,41.3l-120,171.2h39.4l88.6-126v76.8l35.4-47.2V41.3C218.2,41.3,174.9,42.2,174.9,41.3z"/>
<polygon class="st0" points="289,41.3 170.9,212.5 206.4,212.5 326.4,41.3 "/>
<path class="st0" d="M330.3,66.9l-31.5,45.3v102.3h31.5C330.3,214.5,328.7,65.3,330.3,66.9z"/>
<path class="st0" d="M346.1,41.3v173.2h31.5v-74.8h133.8l19.7-25.6H377.6V68.9h86.6l19.7-27.6C483.8,41.3,345.4,40.7,346.1,41.3z"/>
<path class="st0" d="M613.7,108.2C600,29.5,503.5,41.3,503.5,41.3l-39.4,59v114.1l81.1-0.5c4.2,0,8.3-0.9,12.1-2.7
	C575.3,202.8,625.1,173,613.7,108.2z M539.9,184h-41.3V65.9h28.2c10.6,0,21.1,3.1,29.9,9.1c12.5,8.6,26.6,24.4,26.6,51.9
	C583.2,176.1,539.9,184,539.9,184z"/>
<g>
	<path class="st0" d="M101.9,285.2v-44.8h-0.1l-18.8,44.8h-4.3l-18.7-44.8h-0.1v44.8h-5V235h7.7l18.3,42.8L99.2,235h7.7v50.3H101.9z
		"/>
	<path class="st0" d="M187.1,235h5v31.9c0,12.7-7.4,19.3-17.1,19.3c-9.6,0-17.1-6.4-17.1-19.4V235h5v32c0,10.1,5.4,14.6,12.1,14.6
		c5.8,0,12.1-3.6,12.1-14.5V235z"/>
	<path class="st0" d="M243.7,285.2V235h5v45.7h20.8v4.6H243.7z"/>
	<path class="st0" d="M319.1,285.2v-45.7h-11.6V235h28.1v4.6h-11.5v45.7H319.1z"/>
	<path class="st0" d="M382,285.2V235h5v50.3H382z"/>
	<path class="st0" d="M497.3,285.2V235h25.4v4.6h-20.4v18.2h19.6v4.6h-19.6v23H497.3z"/>
	<path class="st0" d="M571.3,285.2V235h14.9c6,0,12.2,1.5,16.6,4.4c6.8,4.5,10.9,12.5,10.9,21c0,6.3-2.4,12.3-7.3,17.3
		c-4.9,5.1-12,7.5-20.5,7.5H571.3z M585.5,280.7c8.4,0,13.9-2.2,17.6-6c3.8-4.1,5.6-9.3,5.6-14.5c0-6.5-2.7-12.2-8-16.3
		c-3.5-2.7-8.9-4.3-15.4-4.3h-9v41.2H585.5z"/>
</g>
<g>
	<path class="st1" d="M73.5,362.4v-20.3l-9.3,13.5h-0.1l-9.3-13.5v20.3h-1.7V339h1.6l9.4,13.9l9.4-13.9h1.6v23.4H73.5z"/>
	<path class="st1" d="M83.9,362.4V339h16.7v1.6H85.6v9.2H99v1.6H85.6v9.4h15.1v1.6H83.9z M90.7,336.8l2.9-4.4l2,1l-3.6,3.4H90.7z"/>
	<path class="st1" d="M118.6,362.8c-6.7,0-11.6-5.3-11.6-12v-0.1c0-6.6,5-12.1,11.7-12.1c4.2,0,6.7,1.5,9.1,3.7l-1.2,1.3
		c-2-2-4.4-3.4-7.9-3.4c-5.6,0-9.9,4.6-9.9,10.5v0.1c0,5.9,4.3,10.5,9.9,10.5c3.4,0,5.7-1.3,8.1-3.6l1.2,1.1
		C125.4,361.2,122.7,362.8,118.6,362.8z"/>
	<path class="st1" d="M153.9,362.4l-3-6.6h-13.8l-3,6.6h-1.8l10.9-23.6h1.7l10.9,23.6H153.9z M144,340.7l-6.2,13.5h12.3L144,340.7z"
		/>
	<path class="st1" d="M180.6,362.4l-16.5-20.8v20.8h-1.7V339h1.6l16.2,20.4V339h1.7v23.4H180.6z"/>
	<path class="st1" d="M190.8,362.4V339h1.7v23.4H190.8z"/>
	<path class="st1" d="M222.9,363.1l-3.3-3c-2,1.7-4.5,2.7-7.6,2.7c-7.1,0-11.7-5.7-11.7-12v-0.1c0-6.4,4.7-12.1,11.8-12.1
		c7.1,0,11.7,5.7,11.7,12c0,0,0,0,0,0.1c0,3.1-1.1,6.1-3.1,8.3l3.3,2.8L222.9,363.1z M222.1,350.7c0-5.8-4.2-10.5-10-10.5
		c-5.8,0-9.9,4.7-9.9,10.5v0.1c0,5.8,4.2,10.5,10,10.5c2.4,0,4.6-0.8,6.2-2.2l-4.6-3.9l1.2-1.4l4.5,4.1
		C221.1,356,222.1,353.5,222.1,350.7L222.1,350.7z"/>
	<path class="st1" d="M240.7,362.8c-5.6,0-9.6-3.5-9.6-10.1V339h1.7v13.5c0,5.5,3,8.7,7.9,8.7c4.8,0,7.8-2.9,7.8-8.5V339h1.7v13.5
		C250.3,359.2,246.4,362.8,240.7,362.8z"/>
	<path class="st1" d="M258.6,362.4V339h16.7v1.6h-14.9v9.2h13.4v1.6h-13.4v9.4h15.1v1.6H258.6z"/>
	<path class="st1" d="M331.8,362.4V339h16.7v1.6h-14.9v9.2h13.4v1.6h-13.4v9.4h15.1v1.6H331.8z M338.6,336.8l2.9-4.4l2,1l-3.6,3.4
		H338.6z"/>
	<path class="st1" d="M355.9,362.4V339h1.7v21.8h13.7v1.6H355.9z"/>
	<path class="st1" d="M378.2,362.4V339h16.7v1.6H380v9.2h13.4v1.6H380v9.4h15.1v1.6H378.2z"/>
	<path class="st1" d="M412.9,362.8c-6.7,0-11.6-5.3-11.6-12v-0.1c0-6.6,5-12.1,11.7-12.1c4.2,0,6.7,1.5,9.1,3.7l-1.2,1.3
		c-2-2-4.4-3.4-7.9-3.4c-5.6,0-9.9,4.6-9.9,10.5v0.1c0,5.9,4.3,10.5,9.9,10.5c3.4,0,5.7-1.3,8.1-3.6l1.2,1.1
		C419.8,361.2,417.1,362.8,412.9,362.8z"/>
	<path class="st1" d="M436.9,340.6v21.8h-1.7v-21.8H427V339h18.1v1.6H436.9z"/>
	<path class="st1" d="M468.9,362.4l-7.5-9.7h-7.7v9.7H452V339h9.8c5.1,0,8.4,2.7,8.4,6.7v0.1c0,3.9-2.9,6.2-6.9,6.7l7.7,10H468.9z
		 M468.5,345.7c0-3.1-2.5-5.1-6.7-5.1h-8v10.5h7.9C465.6,351.1,468.5,349.2,468.5,345.7L468.5,345.7z"/>
	<path class="st1" d="M488.6,362.8c-7.1,0-11.7-5.7-11.7-12v-0.1c0-6.4,4.7-12.1,11.8-12.1s11.7,5.7,11.7,12c0,0,0,0,0,0.1
		C500.4,357.1,495.7,362.8,488.6,362.8z M498.6,350.7c0-5.8-4.2-10.5-10-10.5c-5.8,0-9.9,4.7-9.9,10.5v0.1c0,5.8,4.2,10.5,10,10.5
		S498.6,356.5,498.6,350.7L498.6,350.7z"/>
	<path class="st1" d="M526.2,362.4l-16.5-20.8v20.8H508V339h1.6l16.2,20.4V339h1.7v23.4H526.2z"/>
	<path class="st1" d="M536.4,362.4V339h1.7v23.4H536.4z"/>
	<path class="st1" d="M568.5,363.1l-3.3-3c-2,1.7-4.5,2.7-7.6,2.7c-7.1,0-11.7-5.7-11.7-12v-0.1c0-6.4,4.7-12.1,11.8-12.1
		s11.7,5.7,11.7,12c0,0,0,0,0,0.1c0,3.1-1.1,6.1-3.1,8.3l3.3,2.8L568.5,363.1z M567.7,350.7c0-5.8-4.2-10.5-10-10.5
		c-5.8,0-9.9,4.7-9.9,10.5v0.1c0,5.8,4.2,10.5,10,10.5c2.4,0,4.6-0.8,6.2-2.2l-4.6-3.9l1.2-1.4l4.5,4.1
		C566.7,356,567.7,353.5,567.7,350.7L567.7,350.7z"/>
	<path class="st1" d="M586.3,362.8c-5.6,0-9.6-3.5-9.6-10.1V339h1.7v13.5c0,5.5,3,8.7,7.9,8.7c4.8,0,7.8-2.9,7.8-8.5V339h1.7v13.5
		C595.9,359.2,592,362.8,586.3,362.8z"/>
	<path class="st1" d="M604.2,362.4V339h16.7v1.6h-14.9v9.2h13.4v1.6h-13.4v9.4H621v1.6H604.2z"/>
</g>
<circle class="st1" cx="304.8" cy="350.3" r="4.9"/>
</svg>
